<?xml version="1.0" standalone="no"?>
<!DOCTYPE svg PUBLIC "-//W3C//DTD SVG 20010904//EN"
 "http://www.w3.org/TR/2001/REC-SVG-20010904/DTD/svg10.dtd">
<svg version="1.0" xmlns="http://www.w3.org/2000/svg"
 width="768.000000pt" height="768.000000pt" viewBox="0 0 768.000000 768.000000"
 preserveAspectRatio="xMidYMid meet">

<g transform="translate(0.000000,768.000000) scale(0.100000,-0.100000)"
fill="#000000" stroke="none">
<path d="M3510 7229 c-135 -14 -373 -57 -527 -94 -164 -40 -423 -124 -491
-160 -26 -14 -50 -25 -55 -25 -14 0 -324 -157 -379 -192 -29 -19 -60 -37 -68
-40 -25 -10 -261 -178 -320 -228 -30 -26 -66 -56 -79 -66 -53 -40 -151 -132
-255 -238 -263 -270 -423 -494 -581 -821 -139 -288 -199 -479 -267 -850 l-32
-170 -5 -890 c-3 -490 -6 -1230 -5 -1645 0 -669 2 -763 17 -825 61 -255 301
-490 557 -544 41 -9 748 -11 2850 -9 l2795 3 70 28 c39 16 95 42 125 60 72 40
198 166 242 242 41 72 84 188 98 269 6 39 10 606 10 1656 0 1386 -2 1612 -16
1715 -51 395 -171 760 -368 1120 -57 103 -208 337 -258 399 -150 188 -362 413
-488 518 -501 419 -1017 653 -1685 765 -135 22 -184 25 -475 28 -179 2 -363
-1 -410 -6z m1520 -899 c13 -8 15 -74 16 -484 1 -260 4 -486 8 -500 l6 -26
406 0 c342 0 405 2 410 14 3 8 -6 53 -20 99 -14 47 -26 91 -26 99 0 23 48 61
145 116 164 93 195 93 215 -3 20 -98 30 -178 30 -257 0 -67 -2 -77 -20 -83
-10 -3 -28 -2 -38 4 -16 8 -20 27 -25 118 -7 102 -19 178 -30 190 -6 6 -125
-59 -159 -87 l-23 -18 23 -90 c28 -107 26 -138 -11 -166 -28 -20 -38 -21 -463
-21 l-436 0 -28 31 c-46 52 -50 98 -50 559 0 234 -2 425 -5 425 -3 0 -48 -21
-101 -46 -91 -43 -96 -47 -90 -72 12 -55 26 -338 35 -677 6 -233 13 -359 21
-377 13 -28 53 -61 87 -72 29 -9 36 -34 18 -62 -26 -40 -78 -26 -147 39 -51
48 -57 93 -67 577 -8 317 -15 471 -26 534 -19 108 -20 106 106 171 140 72 201
89 239 65z m-1244 -477 c35 -52 49 -173 49 -413 l0 -215 -32 -3 c-41 -4 -40
-8 -47 238 -5 170 -15 281 -32 329 -3 9 -8 10 -17 3 -6 -5 -43 -27 -82 -47
-112 -60 -145 -84 -145 -103 0 -10 11 -56 24 -102 39 -137 40 -146 17 -169
-27 -27 -74 -38 -226 -52 -159 -14 -752 -13 -804 1 -20 5 -47 20 -58 32 -23
25 -90 156 -118 231 -10 26 -22 50 -27 53 -9 6 -161 -137 -209 -197 l-29 -37
54 -113 c82 -171 95 -219 97 -344 1 -132 -8 -149 -102 -183 -103 -37 -192 -52
-316 -52 -140 0 -213 18 -260 65 l-33 33 0 139 c0 76 7 194 15 263 8 68 11
128 6 133 -4 4 -43 9 -86 10 l-78 2 -8 -30 c-14 -51 -39 -413 -39 -568 0 -167
9 -200 61 -239 36 -26 64 -38 144 -60 56 -15 345 -18 458 -5 65 7 67 7 79 -17
8 -19 8 -29 -1 -40 -33 -39 -301 -58 -477 -33 -242 34 -326 103 -349 282 -13
103 32 722 56 766 12 23 77 41 126 34 21 -2 77 -10 126 -16 l87 -11 0 -37 c0
-20 -4 -63 -10 -96 -14 -89 -32 -400 -24 -430 10 -41 56 -58 169 -63 154 -7
351 37 369 83 11 29 6 117 -9 185 -8 36 -45 127 -82 203 l-67 138 19 37 c11
20 72 89 135 154 88 89 124 119 155 128 68 20 88 5 125 -92 17 -46 47 -115 65
-154 33 -70 35 -72 77 -78 114 -17 836 2 892 24 22 8 23 12 15 47 -4 21 -20
71 -34 112 -15 42 -24 84 -21 97 4 14 34 41 81 71 42 26 105 67 140 90 72 46
87 52 130 50 21 -2 35 -11 51 -34z m-1868 -110 c45 -49 8 -103 -49 -70 -18 10
-51 17 -80 17 l-49 0 0 -60 0 -60 49 0 c67 0 81 -7 81 -41 0 -40 -29 -53 -104
-46 -34 3 -69 9 -79 12 -26 11 -40 80 -33 165 8 106 21 116 146 112 87 -3 97
-5 118 -29z m2543 -100 c87 -96 132 -273 133 -522 1 -126 -1 -145 -16 -155
-13 -8 -23 -8 -35 0 -15 9 -20 38 -30 178 -6 92 -17 193 -23 224 -15 76 -47
172 -66 197 -14 19 -15 19 -42 -15 -40 -50 -132 -184 -132 -191 0 -3 20 -43
45 -90 82 -151 120 -290 96 -352 -28 -73 -192 -241 -275 -283 -54 -26 -127
-29 -203 -5 -82 24 -125 55 -121 84 6 39 31 43 96 14 81 -37 155 -37 208 -1
69 47 143 115 180 166 35 47 36 52 31 108 -6 66 -35 137 -107 257 -28 45 -50
93 -50 105 0 28 159 248 214 296 41 36 52 34 97 -15z m-782 -538 c16 -8 31
-22 35 -30 8 -21 8 -189 0 -210 -12 -30 -60 -45 -147 -45 -102 0 -120 10 -121
70 -1 41 1 44 31 50 25 6 32 4 36 -11 4 -16 15 -19 61 -19 54 0 55 0 61 33 3
17 4 43 2 57 -4 22 -9 25 -56 28 -46 3 -53 1 -58 -18 -4 -14 -11 -19 -24 -15
-11 3 -28 8 -39 11 -13 3 -20 14 -20 29 0 38 11 56 44 71 42 18 160 18 195 -1z
m2012 -4 c22 -17 24 -28 27 -118 3 -87 1 -102 -16 -123 -19 -23 -28 -25 -125
-28 -100 -4 -105 -3 -121 19 -21 30 -21 73 0 90 14 11 21 10 47 -4 16 -10 49
-20 73 -24 50 -7 54 -1 57 74 l2 48 -67 3 c-71 3 -83 13 -72 58 6 23 10 24 89
24 67 0 87 -4 106 -19z m-3277 -22 c14 -17 26 -34 26 -38 0 -24 63 -31 280
-31 125 0 235 -3 244 -6 18 -7 21 -36 6 -65 -10 -18 -23 -19 -233 -19 -126 0
-239 5 -260 11 -22 6 -42 8 -45 4 -4 -4 -10 -75 -13 -158 -7 -164 -22 -227
-56 -227 -43 1 -46 12 -34 113 6 53 11 170 11 261 0 147 2 166 18 175 25 15
28 14 56 -20z m965 5 c12 -15 21 -34 21 -43 0 -38 -46 -54 -70 -26 -10 12 -28
15 -69 13 l-56 -3 -3 -57 -3 -58 56 0 c35 0 62 5 71 14 9 10 23 12 41 7 36 -9
42 -48 13 -79 -18 -19 -32 -22 -98 -24 -158 -4 -162 0 -162 141 0 138 3 141
135 141 100 0 104 -1 124 -26z m-608 -563 c24 -30 26 -117 3 -142 -15 -16 -14
-19 5 -40 27 -29 35 -72 21 -114 -17 -50 -43 -65 -117 -65 -81 0 -82 16 -2 22
70 5 99 28 99 78 0 67 -36 90 -140 90 l-71 0 3 -87 c2 -59 7 -88 15 -88 6 0
14 -3 18 -7 4 -4 -7 -6 -24 -6 l-31 1 0 193 0 193 38 3 c20 2 66 1 101 -2 50
-5 67 -10 82 -29z m1704 29 c53 0 83 -23 94 -72 13 -55 -2 -108 -40 -140 l-32
-27 31 -50 c32 -51 53 -109 36 -98 -5 3 -27 39 -49 81 l-40 76 -67 0 -68 0 0
-81 c0 -51 -4 -78 -10 -74 -6 4 -10 80 -10 195 l0 189 43 4 c23 2 48 2 55 0 8
-2 33 -3 57 -3z m765 -196 c0 -123 -4 -194 -10 -194 -6 0 -10 74 -10 201 0
131 3 198 10 194 6 -4 10 -82 10 -201z m767 76 c35 -65 72 -143 83 -174 12
-30 27 -60 35 -66 13 -11 15 11 15 173 0 113 4 188 10 192 7 4 10 -63 10 -194
l0 -201 -23 0 c-20 0 -35 23 -108 171 -46 94 -90 175 -96 181 -10 8 -13 -26
-13 -165 0 -106 -4 -178 -10 -182 -7 -4 -10 63 -10 193 l0 199 23 -4 c16 -3
37 -34 84 -123z m-2413 73 c65 -205 97 -316 94 -331 -2 -9 -14 11 -26 46 l-23
62 -88 0 c-97 0 -97 0 -115 -82 -4 -16 -11 -28 -16 -28 -14 0 -9 20 71 278 30
97 33 102 60 102 24 0 29 -6 43 -47z m64 -995 c19 -19 14 -43 -16 -95 -47 -79
-65 -146 -60 -221 3 -57 11 -78 50 -147 107 -185 115 -316 26 -449 -17 -26
-43 -53 -59 -62 -26 -13 -30 -13 -49 6 -21 21 -18 40 13 72 53 54 62 81 62
178 -1 100 -13 136 -81 240 -12 19 -31 63 -40 98 -23 82 -10 174 39 275 50
103 85 135 115 105z m255 -10 c9 -13 0 -37 -36 -110 -34 -67 -49 -110 -53
-153 -6 -58 -5 -64 46 -165 85 -169 105 -244 90 -337 -11 -66 -32 -110 -77
-162 -30 -35 -41 -42 -67 -39 -45 4 -45 35 -1 88 54 65 67 104 62 182 -4 67
-22 111 -99 252 -31 57 -33 66 -33 160 0 93 3 106 33 171 59 125 104 163 135
113z m242 6 c18 -19 13 -41 -21 -91 -37 -55 -64 -139 -64 -201 0 -51 7 -71 66
-188 62 -123 66 -135 71 -215 6 -106 -18 -179 -82 -245 -39 -42 -44 -44 -69
-33 -36 17 -33 42 13 101 82 101 76 212 -18 377 -58 100 -75 164 -66 241 13
102 99 270 140 270 7 0 21 -7 30 -16z m1491 -1263 c120 -43 200 -114 257 -231
30 -62 32 -71 32 -180 -1 -108 -2 -119 -32 -180 -55 -112 -149 -196 -261 -230
-59 -19 -91 -21 -272 -20 -113 1 -210 1 -217 1 -6 -1 -37 -35 -67 -77 -81
-110 -241 -275 -316 -325 -36 -24 -73 -50 -82 -59 -34 -32 -256 -139 -359
-173 -171 -58 -259 -71 -469 -70 -214 0 -318 15 -480 70 -305 103 -555 285
-768 560 -17 23 -32 45 -32 48 0 4 -11 21 -24 38 -41 54 -134 257 -171 371
-41 127 -62 242 -71 378 -7 96 -7 96 17 100 13 1 752 2 1641 1 1582 -3 1619
-3 1674 -22z"/>
<path d="M2570 4450 l0 -80 80 0 c80 0 80 0 101 33 22 36 19 79 -8 109 -13 14
-31 18 -95 18 l-78 0 0 -80z"/>
<path d="M4347 4523 c-4 -3 -7 -44 -7 -89 l0 -83 36 -7 c19 -3 58 -4 86 -2 66
7 88 31 88 99 0 72 -23 89 -120 89 -42 0 -80 -3 -83 -7z"/>
<path d="M3537 4523 c-4 -7 -36 -111 -63 -205 -5 -16 3 -18 75 -18 45 0 81 3
81 6 0 3 -14 54 -32 115 -28 98 -46 128 -61 102z"/>
<path d="M5388 2154 c-5 -4 -8 -31 -8 -60 0 -118 -65 -356 -136 -497 l-44 -88
202 3 c191 3 206 4 248 27 144 76 213 211 180 354 -40 170 -151 256 -340 265
-52 2 -98 1 -102 -4z"/>
<path d="M7311 4384 c0 -11 3 -14 6 -6 3 7 2 16 -1 19 -3 4 -6 -2 -5 -13z"/>
<path d="M7325 2005 c0 -396 1 -557 2 -357 2 200 2 524 0 720 -1 196 -2 33 -2
-363z"/>
<path d="M1182 323 c48 -2 129 -2 180 0 51 1 12 3 -87 3 -99 0 -141 -2 -93 -3z"/>
<path d="M1813 323 c71 -2 183 -2 250 0 67 1 10 3 -128 3 -137 0 -192 -2 -122
-3z"/>
<path d="M4588 323 c12 -2 32 -2 45 0 12 2 2 4 -23 4 -25 0 -35 -2 -22 -4z"/>
<path d="M5402 323 c219 -2 577 -2 795 0 219 1 40 2 -397 2 -437 0 -616 -1
-398 -2z"/>
</g>
</svg>
